<svg width="36" height="36" viewBox="0 0 36 36" fill="none" xmlns="http://www.w3.org/2000/svg">
<g clip-path="url(#clip0_113_505)">
<rect width="36" height="36" rx="18" fill="#059669"/>
<path d="M-3 21.4583C-1.73611 16.8889 1.86111 13 7.20834 13C12.9444 13 27.4306 17.5694 32.2917 17.5694C34.1389 17.5694 35.5972 16.8889 36.375 15.625L37.1528 14.2639L39 14.8472L38.3194 16.1111C37.0556 18.4444 34.9167 19.8056 32 19.8056C26.6528 19.8056 12.2639 15.2361 6.52778 15.2361C2.83333 15.2361 -0.0833334 17.0833 -3 21.4583ZM34.625 21.0694C32.7778 23.0139 30.9306 23.5972 28.9861 23.5972C23.5417 23.5972 9.15278 19.125 3.51389 19.125C2.34722 19.125 1.27778 19.3194 0.208334 19.8056C2.54167 17.8611 4.48611 17.1806 6.43056 17.1806C11.5833 17.1806 25.875 21.6528 31.2222 21.6528C32.2917 21.6528 33.3611 21.4583 34.625 21.0694Z" fill="white"/>
</g>
<defs>
<clipPath id="clip0_113_505">
<rect width="36" height="36" rx="18" fill="white"/>
</clipPath>
</defs>
</svg>
