<svg width="36" height="36" viewBox="0 0 36 36" fill="none" xmlns="http://www.w3.org/2000/svg">
<path d="M6 19.789C6.72222 17.2018 8.77778 15 11.8333 15C15.1111 15 23.3889 17.5872 26.1667 17.5872C27.2222 17.5872 28.0556 17.2018 28.5 16.4862L28.9444 15.7156L30 16.0459L29.6111 16.7615C28.8889 18.0826 27.6667 18.8532 26 18.8532C22.9444 18.8532 14.7222 16.2661 11.4444 16.2661C9.33333 16.2661 7.66667 17.3119 6 19.789ZM27.5 19.5688C26.4444 20.6697 25.3889 21 24.2778 21C21.1667 21 12.9444 18.4679 9.72222 18.4679C9.05556 18.4679 8.44444 18.578 7.83333 18.8532C9.16667 17.7523 10.2778 17.367 11.3889 17.367C14.3333 17.367 22.5 19.8991 25.5556 19.8991C26.1667 19.8991 26.7778 19.789 27.5 19.5688Z" fill="#16A34A"/>
</svg>
