<svg width="36" height="36" viewBox="0 0 36 36" fill="none" xmlns="http://www.w3.org/2000/svg">
<path d="M17.6605 34C8.87533 34 2 27.0822 2 18.2971C2 13.7984 3.78249 9.76658 6.71087 6.96552L3.57029 3.82493L13.6711 2L11.8886 12.1432L8.87533 9.12997C6.49867 11.4642 4.97082 14.7321 4.97082 18.2971C4.97082 25.3846 10.4881 31.0292 17.6605 31.0292C24.7056 31.0292 30.435 25.4271 30.435 18.2971C30.435 14.9867 29.0345 11.8886 26.8276 9.59682L29.0345 7.34748C31.7507 10.1485 33.4058 14.0106 33.4058 18.2971C33.4058 26.9973 26.5305 34 17.6605 34Z" fill="#15803D"/>
</svg>
