<svg width="38" height="38" viewBox="0 0 38 38" fill="none" xmlns="http://www.w3.org/2000/svg">
<rect x="1" y="1" width="36" height="36" rx="4" stroke="url(#paint0_linear_5410_1005)"/>
<path fill-rule="evenodd" clip-rule="evenodd" d="M15.3534 13.8777C16.9285 12.5834 18.0428 9.854 18.1724 6.6175C18.1967 6.26 18.3915 6 18.6593 6H19.3409C19.6087 6 19.8035 6.26 19.8278 6.6175C19.9574 9.854 21.0858 12.5834 22.6569 13.8777C24.232 12.5834 25.3463 9.854 25.4758 6.6175C25.5002 6.26 25.6949 6 25.9627 6H26.6444C26.9122 6 27.1069 6.26 27.1313 6.6175C27.3017 10.875 29.2006 14.255 31.562 14.645C31.8054 14.6775 32.0002 14.9375 32.0002 15.36V16.1725C32.0002 16.53 31.7811 16.8225 31.5133 16.8225H29.1519C28.738 16.8225 28.5189 17.4725 28.7867 17.895C29.5414 19.0975 30.4908 19.8775 31.562 20.04C31.8054 20.0725 32.0002 20.365 32.0002 20.69V21.6C32.0002 21.9575 31.7811 22.25 31.5133 22.25H29.1519C28.738 22.25 28.5189 22.9 28.7624 23.3225C29.517 24.525 30.4665 25.305 31.5376 25.4675C31.7811 25.5 31.9758 25.7925 31.9758 26.1175V27.0275C31.9758 27.385 31.7567 27.6775 31.489 27.6775H27.5938C27.326 27.6775 27.1069 27.97 27.1069 28.3275V31.35C27.1069 31.7075 26.8878 32 26.62 32H25.9627C25.6949 32 25.4758 31.7075 25.4758 31.35V28.36C25.4758 28.0025 25.2567 27.71 24.989 27.71H21.0938C21.0415 27.71 20.9911 27.6988 20.9438 27.6775H20.2904C20.0226 27.6775 19.8035 27.97 19.8035 28.3275V31.35C19.8035 31.7075 19.5844 32 19.3166 32H18.6593C18.3915 32 18.1724 31.7075 18.1724 31.35V28.36C18.1724 28.0025 17.9533 27.71 17.6855 27.71H13.7904C13.7381 27.71 13.6876 27.6988 13.6403 27.6775H12.9869C12.7191 27.6775 12.5 27.97 12.5 28.3275V31.35C12.5 31.7075 12.2809 32 12.0131 32H11.3558C11.088 32 10.8689 31.7075 10.8689 31.35V28.36C10.8689 28.0025 10.6498 27.71 10.382 27.71H6.48689C6.2191 27.71 6 27.4175 6 26.9625V26.15C6 25.825 6.19476 25.5325 6.4382 25.5C7.50936 25.3375 8.4588 24.5575 9.21348 23.355C9.48127 22.9325 9.26217 22.2825 8.84831 22.2825H6.48689C6.2191 22.2825 6 21.99 6 21.535V20.7225C6 20.3975 6.19476 20.105 6.4382 20.0725C7.48502 19.91 8.4588 19.13 9.21348 17.9275C9.48127 17.505 9.26217 16.855 8.84831 16.855H6.48689C6.2191 16.855 6 16.5625 6 16.1075V15.295C6 14.97 6.19476 14.6775 6.4382 14.645C8.82397 14.255 10.6985 10.875 10.8689 6.6175C10.8933 6.26 11.088 6 11.3558 6H12.0375C12.3052 6 12.5 6.26 12.5243 6.6175C12.6539 9.854 13.7823 12.5834 15.3534 13.8777ZM15.3558 24.7299C15.7795 24.3742 16.1689 23.9095 16.5169 23.355C16.7847 22.9325 16.5656 22.2825 16.1518 22.2825H14.3906C14.0809 22.4191 13.9444 22.9563 14.1554 23.3225C14.5142 23.8941 14.9169 24.3702 15.3558 24.7299ZM15.3636 19.2889C14.9311 18.9308 14.534 18.4594 14.1798 17.895C13.9476 17.5288 14.0814 16.9916 14.3907 16.855H16.1518C16.5656 16.855 16.7847 17.505 16.5169 17.9275C16.1733 18.475 15.7843 18.9349 15.3636 19.2889ZM23.8204 23.355C23.4724 23.9095 23.0829 24.3742 22.6592 24.7299C22.2204 24.3702 21.8176 23.8941 21.4589 23.3225C21.2479 22.9563 21.3844 22.4191 21.6941 22.2825H23.4552C23.8691 22.2825 24.0882 22.9325 23.8204 23.355ZM21.4832 17.895C21.8375 18.4594 22.2346 18.9308 22.6671 19.2889C23.0878 18.9349 23.4768 18.475 23.8204 17.9275C24.0882 17.505 23.8691 16.855 23.4552 16.855H21.6941C21.3848 16.9916 21.2511 17.5288 21.4832 17.895Z" fill="url(#paint1_linear_5410_1005)"/>
<defs>
<linearGradient id="paint0_linear_5410_1005" x1="33" y1="21" x2="3" y2="1" gradientUnits="userSpaceOnUse">
<stop stop-color="#A7F3D0"/>
<stop offset="0.13" stop-color="#34D399"/>
<stop offset="0.395" stop-color="#16A34A"/>
<stop offset="0.755" stop-color="#14532D"/>
</linearGradient>
<linearGradient id="paint1_linear_5410_1005" x1="13.8929" y1="8.32143" x2="-2.20222" y2="17.3053" gradientUnits="userSpaceOnUse">
<stop stop-color="#A7F3D0"/>
<stop offset="0.13" stop-color="#34D399"/>
<stop offset="0.395" stop-color="#16A34A"/>
<stop offset="0.755" stop-color="#14532D"/>
</linearGradient>
</defs>
</svg>
