<svg width="36" height="36" viewBox="0 0 36 36" fill="none" xmlns="http://www.w3.org/2000/svg">
<rect width="36" height="36" rx="18" fill="#042F2E"/>
<path d="M23.0429 25.1995C22.0432 25.1995 21.2195 25.12 20.5719 24.9609C19.9357 24.8133 19.4699 24.586 19.1745 24.2793C18.8791 23.9839 18.7314 23.6203 18.7314 23.1886C18.7314 22.666 18.9359 22.24 19.3449 21.9105C19.7653 21.5811 20.3788 21.3936 21.1854 21.3482V20.9903C20.5606 20.9903 20.0777 20.9278 19.7369 20.8028C19.4074 20.6779 19.2427 20.445 19.2427 20.1041C19.2427 19.786 19.4074 19.4963 19.7369 19.235C20.0664 18.9737 20.6117 18.7692 21.3729 18.6215V18.2637C20.6799 18.2069 20.1288 17.9796 19.7198 17.582C19.3109 17.173 19.1064 16.639 19.1064 15.9801C19.1064 15.4234 19.2654 14.9179 19.5835 14.4634C19.9016 13.9976 20.3788 13.6284 21.015 13.3557C21.6512 13.0717 22.4465 12.9297 23.4008 12.9297H28.0702V14.9917L25.2242 14.6168V15.0258C25.9627 15.128 26.491 15.2984 26.8091 15.537C27.1272 15.7756 27.2862 16.1108 27.2862 16.5425C27.2862 16.9969 27.1272 17.4002 26.8091 17.7524C26.5023 18.1046 26.0649 18.3829 25.4969 18.5874C24.9288 18.7806 24.2529 18.8771 23.469 18.8771C23.3326 18.8771 23.1793 18.8715 23.0088 18.8601C22.8498 18.8487 22.5487 18.8203 22.1056 18.7749C21.9239 18.934 21.7819 19.0703 21.6796 19.1839C21.5774 19.2861 21.5262 19.3827 21.5262 19.4736C21.5262 19.5418 21.5546 19.5986 21.6114 19.644C21.6683 19.6895 21.7478 19.7235 21.85 19.7463C21.9636 19.7576 22.0829 19.7633 22.2079 19.7633H24.9516C25.1788 19.7633 25.4742 19.7803 25.8377 19.8144C26.2126 19.8372 26.5819 19.9224 26.9454 20.0701C27.3203 20.2177 27.6328 20.4563 27.8827 20.7858C28.144 21.1153 28.2747 21.5867 28.2747 22.2002C28.2747 22.8705 28.0872 23.4272 27.7123 23.8703C27.3374 24.3247 26.7636 24.6599 25.9911 24.8757C25.2186 25.0916 24.2358 25.1995 23.0429 25.1995ZM23.4008 23.0182C24.0597 23.0182 24.571 22.9841 24.9345 22.916C25.2981 22.8478 25.548 22.7399 25.6844 22.5922C25.832 22.4445 25.9059 22.2627 25.9059 22.0469C25.9059 21.8424 25.8661 21.6833 25.7866 21.5697C25.7071 21.4447 25.6048 21.3595 25.4799 21.3141C25.3549 21.2686 25.2242 21.2402 25.0879 21.2289C24.9629 21.2175 24.855 21.2118 24.7641 21.2118H22.5658C22.1454 21.2118 21.833 21.3141 21.6285 21.5186C21.4354 21.7117 21.3388 21.9389 21.3388 22.2002C21.3388 22.4161 21.407 22.5808 21.5433 22.6944C21.6796 22.8194 21.8955 22.9046 22.1909 22.9501C22.4976 22.9955 22.9009 23.0182 23.4008 23.0182ZM23.2815 17.5138C23.77 17.5138 24.1336 17.3832 24.3722 17.1219C24.6221 16.8606 24.7471 16.5311 24.7471 16.1335C24.7471 15.7018 24.6221 15.3496 24.3722 15.0769C24.1222 14.7929 23.7644 14.6509 23.2986 14.6509C22.8328 14.6509 22.4692 14.7929 22.2079 15.0769C21.9466 15.3496 21.8159 15.7018 21.8159 16.1335C21.8159 16.3948 21.8728 16.6334 21.9864 16.8492C22.1 17.0537 22.2647 17.2184 22.4806 17.3434C22.6964 17.457 22.9634 17.5138 23.2815 17.5138Z" fill="#86EFAC"/>
<path d="M7.7998 22.0472V10.7998H12.5884C13.2133 10.7998 13.7814 10.8509 14.2926 10.9532C14.8038 11.0441 15.2526 11.1861 15.6389 11.3792C16.0365 11.561 16.3716 11.7882 16.6443 12.0609C16.917 12.3222 17.1215 12.6289 17.2578 12.9811C17.3941 13.3219 17.4623 13.7025 17.4623 14.1229C17.4623 14.5205 17.3998 14.8784 17.2748 15.1965C17.1499 15.5146 16.9567 15.7929 16.6954 16.0315C16.4455 16.2701 16.1274 16.4632 15.7411 16.6109C15.3548 16.7586 14.9061 16.8666 14.3948 16.9347V17.1903C15.0424 17.2585 15.5423 17.4062 15.8945 17.6334C16.258 17.8493 16.5364 18.139 16.7295 18.5025C16.9227 18.8661 17.0931 19.3035 17.2408 19.8147L17.8883 22.0472H14.8379L14.3437 19.9851C14.2415 19.5307 14.0995 19.1785 13.9177 18.9286C13.7473 18.6786 13.5257 18.5082 13.2531 18.4173C12.9804 18.3151 12.6396 18.264 12.2306 18.264H10.5435V22.0472H7.7998ZM10.5435 16.236H12.401C13.094 16.236 13.6337 16.0997 14.0199 15.827C14.4062 15.5544 14.5993 15.1283 14.5993 14.5489C14.5993 13.9809 14.4232 13.5605 14.0711 13.2879C13.7189 13.0152 13.1849 12.8789 12.4692 12.8789H10.5435V16.236Z" fill="#86EFAC"/>
</svg>
