<svg width="36" height="36" viewBox="0 0 36 36" fill="none" xmlns="http://www.w3.org/2000/svg">
<mask id="path-1-inside-1_5476_49983" fill="white">
<path d="M0 12C0 5.37258 5.37258 0 12 0V0C25.2548 0 36 10.7452 36 24V33.8824C36 35.0519 35.0519 36 33.8824 36H20.8421C9.33133 36 0 26.6687 0 15.1579V12Z"/>
</mask>
<path d="M0 12C0 5.37258 5.37258 0 12 0V0C25.2548 0 36 10.7452 36 24V33.8824C36 35.0519 35.0519 36 33.8824 36H20.8421C9.33133 36 0 26.6687 0 15.1579V12Z" fill="#052E16"/>
<path d="M0 0H36H0ZM36 33.8824C36 36.7088 33.7088 39 30.8824 39H20.8421C8.77904 39 -1 29.221 -1 17.1579L1 15.1579C1 25.0118 9.88361 33 20.8421 33H33.8824C35.0519 33 36 33 36 33V33.8824ZM20.8421 39C8.77904 39 -1 29.221 -1 17.1579V13C-1 5.8203 4.8203 0 12 0C5.92487 0 1 5.37258 1 12V15.1579C1 25.0118 9.88361 33 20.8421 33V39ZM36 0V36V0Z" fill="url(#paint0_linear_5476_49983)" mask="url(#path-1-inside-1_5476_49983)"/>
<path fill-rule="evenodd" clip-rule="evenodd" d="M7.7998 10.7998V22.0472H10.5435V18.264H12.2306C12.6396 18.264 12.9804 18.3151 13.2531 18.4173C13.5257 18.5082 13.7473 18.6786 13.9177 18.9286C14.0995 19.1785 14.2415 19.5307 14.3437 19.9851L14.8379 22.0472H17.8883L17.2408 19.8147C17.0931 19.3035 16.9227 18.8661 16.7295 18.5025C16.5364 18.139 16.258 17.8493 15.8945 17.6334C15.5423 17.4062 15.0424 17.2585 14.3948 17.1903V16.9347C14.9061 16.8666 15.3548 16.7586 15.7411 16.6109C16.1274 16.4632 16.4455 16.2701 16.6954 16.0315C16.9567 15.7929 17.1499 15.5146 17.2748 15.1965C17.3998 14.8784 17.4623 14.5205 17.4623 14.1229C17.4623 13.7025 17.3941 13.3219 17.2578 12.9811C17.1215 12.6289 16.917 12.3222 16.6443 12.0609C16.3716 11.7882 16.0365 11.561 15.6389 11.3792C15.2526 11.1861 14.8038 11.0441 14.2926 10.9532C13.7814 10.8509 13.2133 10.7998 12.5885 10.7998H7.7998ZM12.401 16.236H10.5435V12.8789H12.4692C13.1849 12.8789 13.7189 13.0152 14.0711 13.2879C14.4232 13.5605 14.5993 13.9809 14.5993 14.5489C14.5993 15.1283 14.4062 15.5544 14.0199 15.827C13.6337 16.0997 13.094 16.236 12.401 16.236Z" fill="#BBF7D0"/>
<path fill-rule="evenodd" clip-rule="evenodd" d="M20.5719 24.9612C21.2195 25.1202 22.0432 25.1998 23.043 25.1998C24.2359 25.1998 25.2186 25.0918 25.9911 24.876C26.7637 24.6601 27.3374 24.325 27.7123 23.8705C28.0872 23.4274 28.2747 22.8708 28.2747 22.2005C28.2747 21.587 28.144 21.1155 27.8827 20.786C27.6328 20.4566 27.3204 20.218 26.9454 20.0703C26.5819 19.9226 26.2127 19.8374 25.8377 19.8147C25.4742 19.7806 25.1788 19.7635 24.9516 19.7635H22.2079C22.0829 19.7635 21.9637 19.7579 21.85 19.7465C21.7478 19.7238 21.6683 19.6897 21.6115 19.6442C21.5547 19.5988 21.5263 19.542 21.5263 19.4738C21.5263 19.3829 21.5774 19.2864 21.6796 19.1841C21.7819 19.0705 21.9239 18.9342 22.1057 18.7751C22.5487 18.8206 22.8498 18.849 23.0089 18.8603C23.1793 18.8717 23.3327 18.8774 23.469 18.8774C24.2529 18.8774 24.9289 18.7808 25.4969 18.5877C26.065 18.3832 26.5024 18.1048 26.8091 17.7526C27.1272 17.4005 27.2863 16.9971 27.2863 16.5427C27.2863 16.111 27.1272 15.7758 26.8091 15.5373C26.491 15.2987 25.9627 15.1283 25.2243 15.026V14.617L28.0702 14.9919V12.9299H23.4008C22.4465 12.9299 21.6512 13.0719 21.015 13.356C20.3788 13.6286 19.9016 13.9979 19.5835 14.4637C19.2654 14.9181 19.1064 15.4237 19.1064 15.9803C19.1064 16.6393 19.3109 17.1732 19.7199 17.5822C20.1289 17.9799 20.6799 18.2071 21.3729 18.2639V18.6218C20.6117 18.7695 20.0664 18.974 19.7369 19.2353C19.4074 19.4966 19.2427 19.7863 19.2427 20.1044C19.2427 20.4452 19.4074 20.6781 19.7369 20.8031C20.0777 20.928 20.5606 20.9905 21.1854 20.9905V21.3484C20.3788 21.3938 19.7653 21.5813 19.345 21.9108C18.936 22.2402 18.7315 22.6663 18.7315 23.1889C18.7315 23.6206 18.8792 23.9841 19.1745 24.2795C19.4699 24.5863 19.9357 24.8135 20.5719 24.9612ZM24.9345 22.9162C24.571 22.9844 24.0598 23.0185 23.4008 23.0185C22.9009 23.0185 22.4976 22.9957 22.1909 22.9503C21.8955 22.9048 21.6796 22.8196 21.5433 22.6947C21.407 22.5811 21.3388 22.4163 21.3388 22.2005C21.3388 21.9392 21.4354 21.7119 21.6285 21.5188C21.833 21.3143 22.1454 21.2121 22.5658 21.2121H24.7641C24.855 21.2121 24.963 21.2177 25.0879 21.2291C25.2243 21.2405 25.3549 21.2689 25.4799 21.3143C25.6048 21.3598 25.7071 21.445 25.7866 21.5699C25.8662 21.6835 25.9059 21.8426 25.9059 22.0471C25.9059 22.263 25.8321 22.4447 25.6844 22.5924C25.548 22.7401 25.2981 22.848 24.9345 22.9162ZM24.3722 17.1221C24.1336 17.3834 23.7701 17.5141 23.2815 17.5141C22.9634 17.5141 22.6964 17.4573 22.4806 17.3437C22.2647 17.2187 22.1 17.054 21.9864 16.8495C21.8728 16.6336 21.816 16.395 21.816 16.1337C21.816 15.702 21.9466 15.3498 22.2079 15.0771C22.4692 14.7931 22.8328 14.6511 23.2986 14.6511C23.7644 14.6511 24.1222 14.7931 24.3722 15.0771C24.6221 15.3498 24.7471 15.702 24.7471 16.1337C24.7471 16.5313 24.6221 16.8608 24.3722 17.1221Z" fill="#BBF7D0"/>
<defs>
<linearGradient id="paint0_linear_5476_49983" x1="0" y1="18" x2="39.3446" y2="18" gradientUnits="userSpaceOnUse">
<stop stop-color="#99F6E4"/>
<stop offset="1" stop-color="#34D399"/>
</linearGradient>
</defs>
</svg>
