<svg width="36" height="36" viewBox="0 0 36 36" fill="none" xmlns="http://www.w3.org/2000/svg">
<mask id="path-1-inside-1_5476_49987" fill="white">
<path d="M0 12C0 5.37258 5.37258 0 12 0V0C25.2548 0 36 10.7452 36 24V33.8824C36 35.0519 35.0519 36 33.8824 36H20.8421C9.33133 36 0 26.6687 0 15.1579V12Z"/>
</mask>
<path d="M0 12C0 5.37258 5.37258 0 12 0V0C25.2548 0 36 10.7452 36 24V33.8824C36 35.0519 35.0519 36 33.8824 36H20.8421C9.33133 36 0 26.6687 0 15.1579V12Z" fill="#052E16"/>
<path d="M0 0H36H0ZM36 33.8824C36 36.7088 33.7088 39 30.8824 39H20.8421C8.77904 39 -1 29.221 -1 17.1579L1 15.1579C1 25.0118 9.88361 33 20.8421 33H33.8824C35.0519 33 36 33 36 33V33.8824ZM20.8421 39C8.77904 39 -1 29.221 -1 17.1579V13C-1 5.8203 4.8203 0 12 0C5.92487 0 1 5.37258 1 12V15.1579C1 25.0118 9.88361 33 20.8421 33V39ZM36 0V36V0Z" fill="url(#paint0_linear_5476_49987)" mask="url(#path-1-inside-1_5476_49987)"/>
<path d="M16.1264 8C16.9298 8 17.6966 8.36562 17.6966 9.38125V14.9469C18.3904 13.525 19.0843 12.1844 19.7416 11.0875C20.2893 10.1937 20.8371 9.4625 21.3483 8.93437C22.3343 8 22.736 8 23.0646 8C24.1236 8 25 8.975 25 10.1531C25 11.3719 24.1236 12.3062 23.0646 12.3062C20.4354 12.4687 20.0702 11.6562 17.7331 16.0844C17.6966 16.2062 17.6966 16.2469 17.6966 16.5312V27.5H14.7753V10.8844C14.7753 10.0719 14.4466 9.74687 14.0084 9.74687C13.7163 9.74687 13.3511 9.86875 12.986 10.1125L12 10.6812V9.99062L14.7753 8.36563C15.1404 8.12187 15.6517 8 16.1264 8Z" fill="url(#paint1_linear_5476_49987)"/>
<defs>
<linearGradient id="paint0_linear_5476_49987" x1="0" y1="18" x2="39.3446" y2="18" gradientUnits="userSpaceOnUse">
<stop stop-color="#99F6E4"/>
<stop offset="1" stop-color="#34D399"/>
</linearGradient>
<linearGradient id="paint1_linear_5476_49987" x1="12" y1="17.75" x2="26.2078" y2="17.75" gradientUnits="userSpaceOnUse">
<stop stop-color="#99F6E4"/>
<stop offset="1" stop-color="#34D399"/>
</linearGradient>
</defs>
</svg>
