<svg width="36" height="36" viewBox="0 0 36 36" fill="none" xmlns="http://www.w3.org/2000/svg">
<path d="M29.6639 14.9835C30.4258 14.9835 31.0644 14.713 31.5798 14.172C32.0952 13.631 32.3529 12.9607 32.3529 12.161C32.3529 11.3613 32.0952 10.6968 31.5798 10.1676C31.0644 9.63837 30.4258 9.37376 29.6639 9.37376C28.902 9.37376 28.2689 9.63837 27.7647 10.1676C27.2605 10.6968 27.0084 11.3613 27.0084 12.161C27.0084 12.9607 27.2605 13.631 27.7647 14.172C28.2689 14.713 28.902 14.9835 29.6639 14.9835ZM32.3529 34V24.7211H34V19.0408C34 18.3792 33.7765 17.814 33.3294 17.3452C32.8824 16.8762 32.3552 16.6417 31.7479 16.6417H27.6134C26.9831 16.6417 26.4446 16.8762 25.998 17.3452C25.5511 17.814 25.3277 18.3792 25.3277 19.0408V24.7211H27.0084V29.2018H15.1765V22.1103H16.6218C18.614 22.1103 20.3165 21.3763 21.7294 19.9084C23.1423 18.4404 23.8487 16.6577 23.8487 14.5601C23.8487 13.1488 23.5294 11.8552 22.8908 10.6792C22.2521 9.50312 21.3501 8.59757 20.1849 7.96251C19.7815 6.22198 18.9076 4.79309 17.563 3.67585C16.2185 2.55862 14.6611 2 12.8908 2C11.1204 2 9.56863 2.55862 8.23529 3.67585C6.90196 4.79309 6.02241 6.22198 5.59664 7.96251C4.45378 8.59757 3.56863 9.50312 2.94117 10.6792C2.31372 11.8552 2 13.1488 2 14.5601C2 16.6577 2.69759 18.4404 4.09277 19.9084C5.48795 21.3763 7.17692 22.1103 9.15966 22.1103H10.605V29.2018H3.81512V34H32.3529Z" fill="#15803D"/>
</svg>
