<svg width="36" height="36" viewBox="0 0 36 36" fill="none" xmlns="http://www.w3.org/2000/svg">
<path d="M11.9999 31.5001V25.5001H2.82666L8.77491 16.5001H5.88441L13.4999 5.59619L17.9999 12.0462L22.4999 5.59619L30.1154 16.5001H27.2249L33.1732 25.5001H23.9999V31.5001H20.9999V25.5001H14.9999V31.5001H11.9999ZM23.1835 24.0001H30.4094L24.4529 15.0001H27.2249L22.4999 8.25007L18.943 13.3358L21.1154 16.5001H18.2249L23.1835 24.0001ZM5.59041 24.0001H21.4094L15.4529 15.0001H18.2249L13.4999 8.25007L8.77491 15.0001H11.5469L5.59041 24.0001ZM5.59041 24.0001H11.5469H8.77491H18.2249H15.4529H21.4094H5.59041ZM23.1835 24.0001H18.2249H21.1154H18.943H27.2249H24.4529H30.4094H23.1835Z" fill="url(#paint0_diamond_5360_515)"/>
<defs>
<radialGradient id="paint0_diamond_5360_515" cx="0" cy="0" r="1" gradientUnits="userSpaceOnUse" gradientTransform="translate(17.9999 18.5481) rotate(90) scale(12.9519 15.1733)">
<stop stop-color="#F0FDF4"/>
<stop offset="0.2" stop-color="#22C55E"/>
<stop offset="1" stop-color="#052E16"/>
</radialGradient>
</defs>
</svg>
