<svg width="24" height="24" viewBox="0 0 24 24" fill="none" xmlns="http://www.w3.org/2000/svg">
<g id="favicon-regeneralia-2024-may">
<g id="~R">
<path id="Vector" d="M19.5488 11.631L18.9865 11.3984C20.5764 10.8361 21.2356 9.90542 21.2356 8.58697C21.2356 6.9389 20.2274 5.38778 17.2609 5.38778H10.688V5H17.2609C20.2468 5 21.7397 6.49295 21.7397 8.50941C21.7397 10.0218 20.8866 10.9718 19.5488 11.631ZM18.6375 11.2433L18.0558 10.9912C19.8202 10.5646 20.46 9.63397 20.46 8.45124C20.46 7.59813 20.1304 6.49295 18.9671 5.89189C20.0917 6.16334 20.906 7.26851 20.906 8.5288C20.906 9.73092 20.1692 10.681 18.6375 11.2433ZM16.6404 17.6998H13.48V6.0664L10.688 5.89189V5.698H13.9453V17.3314L16.6404 17.5059V17.6998ZM12.7238 6.31845L13.1698 6.37662V17.6998H10.688V17.5059L12.7238 17.3314V6.31845ZM10.688 18.3978V18.01H16.6404V18.3978H10.688ZM20.3437 15.4895C20.3437 16.362 20.557 17.2732 21.4101 17.7774C20.3049 17.4865 19.8978 16.5558 19.8978 15.5282C19.8978 14.2679 19.6069 13.0464 18.366 12.2709C19.859 12.8525 20.3437 14.3067 20.3437 15.4895ZM14.2556 11.728V5.698H16.7761C19.3549 5.698 20.1304 7.19096 20.1304 8.43185C20.1304 9.51764 19.5294 10.1575 18.5793 10.5646C19.2192 10.0411 19.6263 9.30436 19.6263 8.50941C19.6263 7.63691 19.1222 6.0664 16.7955 6.0664H14.7209V11.282H16.4077C18.7538 11.282 21.0999 12.2709 21.0999 15.1792C21.0999 16.0323 21.2356 17.5059 22.302 17.5059H23V17.7774H22.3214C20.7897 17.7774 20.7121 16.2068 20.6539 15.218C20.4988 12.5423 18.5987 11.728 16.3108 11.728H14.2556ZM23 18.456H22.2632C20.1886 18.456 19.2773 17.4865 19.0834 15.5282C18.9671 14.3455 18.7926 12.5035 16.2332 12.5035H14.7209V17.0794L14.2556 17.0212V12.0382H16.0975C19.161 12.0382 19.3743 13.9965 19.5682 15.6446C19.7039 16.7885 19.8784 18.0876 22.2244 18.0876H23V18.456Z" fill="#22C55E" style="fill:#22C55E;fill:color(display-p3 0.1333 0.7725 0.3686);fill-opacity:1;"/>
<path id="Vector_2" d="M1 14.578C1.25206 13.6667 1.96945 12.8911 3.03585 12.8911C4.1798 12.8911 7.06876 13.8024 8.03821 13.8024C8.4066 13.8024 8.69743 13.6667 8.85255 13.4146L9.00766 13.1432L9.37605 13.2595L9.24033 13.5116C8.98827 13.9769 8.56171 14.2483 7.98004 14.2483C6.91365 14.2483 4.04407 13.3371 2.90012 13.3371C2.16334 13.3371 1.58167 13.7055 1 14.578ZM8.50354 14.5004C8.13515 14.8882 7.76676 15.0045 7.37898 15.0045C6.2932 15.0045 3.42363 14.1126 2.29906 14.1126C2.0664 14.1126 1.85312 14.1514 1.63984 14.2483C2.10517 13.8606 2.49295 13.7248 2.88073 13.7248C3.90835 13.7248 6.75853 14.6167 7.82493 14.6167C8.03821 14.6167 8.25149 14.578 8.50354 14.5004Z" fill="#22C55E" style="fill:#22C55E;fill:color(display-p3 0.1333 0.7725 0.3686);fill-opacity:1;"/>
</g>
</g>
</svg>
