<svg width="38" height="38" viewBox="0 0 38 38" fill="none" xmlns="http://www.w3.org/2000/svg">
<rect x="0.75" y="0.75" width="36.5" height="36.5" rx="4.25" stroke="url(#paint0_linear_5410_280)" stroke-width="0.5"/>
<path d="M24.663 14.31C22.1199 13.89 20.075 10.25 19.8915 5.665C19.8652 5.28 19.6555 5 19.3671 5H18.633C18.3446 5 18.1349 5.28 18.1087 5.665C17.9252 10.25 15.9064 13.89 13.3371 14.31C13.075 14.345 12.8652 14.66 12.8652 15.01V15.885C12.8652 16.375 13.1012 16.69 13.3896 16.69H15.9326C16.3783 16.69 16.6143 17.39 16.3259 17.845C15.5132 19.14 14.4645 19.98 13.3371 20.155C13.075 20.19 12.8652 20.505 12.8652 20.855V21.73C12.8652 22.22 13.1012 22.535 13.3896 22.535H15.9326C16.3783 22.535 16.6143 23.235 16.3259 23.69C15.5132 24.985 14.4907 25.825 13.3371 26C13.075 26.035 12.8652 26.35 12.8652 26.7V27.575C12.8652 28.065 13.1012 28.38 13.3896 28.38H17.5843C17.8727 28.38 18.1087 28.695 18.1087 29.08V32.3C18.1087 32.685 18.3446 33 18.633 33H19.3409C19.6293 33 19.8652 32.685 19.8652 32.3V29.045C19.8652 28.66 20.1012 28.345 20.3896 28.345H24.5843C24.8727 28.345 25.1087 28.03 25.1087 27.645V26.665C25.1087 26.315 24.8989 26 24.6368 25.965C23.4832 25.79 22.4607 24.95 21.648 23.655C21.3858 23.2 21.6218 22.5 22.0675 22.5H24.6106C24.8989 22.5 25.1349 22.185 25.1349 21.8V20.82C25.1349 20.47 24.9252 20.155 24.663 20.12C23.5094 19.945 22.487 19.105 21.6742 17.81C21.3858 17.355 21.6218 16.655 22.0675 16.655H24.6106C24.8989 16.655 25.1349 16.34 25.1349 15.955V15.08C25.1349 14.625 24.9252 14.345 24.663 14.31Z" fill="url(#paint1_linear_5410_280)"/>
<path d="M32.5282 14.31C29.9851 13.89 27.9402 10.25 27.7567 5.665C27.7305 5.28 27.5207 5 27.2323 5H26.4983C26.2099 5 26.0001 5.28 25.9739 5.665C25.7904 10.25 23.7717 13.89 21.2024 14.31C20.9402 14.345 20.7305 14.66 20.7305 15.01V15.885C20.7305 16.375 20.9664 16.69 21.2548 16.69H23.7979C24.2436 16.69 24.4795 17.39 24.1911 17.845C23.3784 19.14 22.3297 19.98 21.2024 20.155C20.9402 20.19 20.7305 20.505 20.7305 20.855V21.73C20.7305 22.22 20.9664 22.535 21.2548 22.535H23.7979C24.2436 22.535 24.4795 23.235 24.1911 23.69C23.3784 24.985 22.3559 25.825 21.2024 26C20.9402 26.035 20.7305 26.35 20.7305 26.7V27.575C20.7305 28.065 20.9664 28.38 21.2548 28.38H25.4496C25.738 28.38 25.9739 28.695 25.9739 29.08V32.3C25.9739 32.685 26.2099 33 26.4983 33H27.2061C27.4945 33 27.7305 32.685 27.7305 32.3V29.045C27.7305 28.66 27.9664 28.345 28.2548 28.345H32.4496C32.738 28.345 32.9739 28.03 32.9739 27.645V26.665C32.9739 26.315 32.7642 26 32.502 25.965C31.3484 25.79 30.326 24.95 29.5132 23.655C29.2511 23.2 29.487 22.5 29.9327 22.5H32.4758C32.7642 22.5 33.0001 22.185 33.0001 21.8V20.82C33.0001 20.47 32.7904 20.155 32.5282 20.12C31.3747 19.945 30.3522 19.105 29.5395 17.81C29.2511 17.355 29.487 16.655 29.9327 16.655H32.4758C32.7642 16.655 33.0001 16.34 33.0001 15.955V15.08C33.0001 14.625 32.7904 14.345 32.5282 14.31Z" fill="url(#paint2_linear_5410_280)"/>
<path d="M16.7978 14.31C14.2547 13.89 12.2097 10.25 12.0262 5.665C12 5.28 11.7903 5 11.5019 5H10.7678C10.4794 5 10.2697 5.28 10.2434 5.665C10.0599 10.25 8.0412 13.89 5.47191 14.31C5.20974 14.345 5 14.66 5 15.01V15.885C5 16.375 5.23596 16.69 5.52434 16.69H8.06742C8.51311 16.69 8.74906 17.39 8.46067 17.845C7.64794 19.14 6.59925 19.98 5.47191 20.155C5.20974 20.19 5 20.505 5 20.855V21.73C5 22.22 5.23596 22.535 5.52434 22.535H8.06742C8.51311 22.535 8.74906 23.235 8.46067 23.69C7.64794 24.985 6.62547 25.825 5.47191 26C5.20974 26.035 5 26.35 5 26.7V27.575C5 28.065 5.23596 28.38 5.52434 28.38H9.7191C10.0075 28.38 10.2434 28.695 10.2434 29.08V32.3C10.2434 32.685 10.4794 33 10.7678 33H11.4757C11.764 33 12 32.685 12 32.3V29.045C12 28.66 12.236 28.345 12.5243 28.345H16.7191C17.0075 28.345 17.2434 28.03 17.2434 27.645V26.665C17.2434 26.315 17.0337 26 16.7715 25.965C15.618 25.79 14.5955 24.95 13.7828 23.655C13.5206 23.2 13.7566 22.5 14.2022 22.5H16.7453C17.0337 22.5 17.2697 22.185 17.2697 21.8V20.82C17.2697 20.47 17.0599 20.155 16.7978 20.12C15.6442 19.945 14.6217 19.105 13.809 17.81C13.5206 17.355 13.7566 16.655 14.2022 16.655H16.7453C17.0337 16.655 17.2697 16.34 17.2697 15.955V15.08C17.2697 14.625 17.0599 14.345 16.7978 14.31Z" fill="url(#paint3_linear_5410_280)"/>
<defs>
<linearGradient id="paint0_linear_5410_280" x1="19" y1="37" x2="19" y2="1" gradientUnits="userSpaceOnUse">
<stop stop-color="#A7F3D0"/>
<stop offset="0.13" stop-color="#34D399"/>
<stop offset="0.395" stop-color="#16A34A"/>
<stop offset="0.755" stop-color="#14532D"/>
</linearGradient>
<linearGradient id="paint1_linear_5410_280" x1="19.0001" y1="5" x2="19.0001" y2="33" gradientUnits="userSpaceOnUse">
<stop stop-color="#A7F3D0"/>
<stop offset="0.13" stop-color="#34D399"/>
<stop offset="0.395" stop-color="#16A34A"/>
<stop offset="0.755" stop-color="#14532D"/>
</linearGradient>
<linearGradient id="paint2_linear_5410_280" x1="26.8653" y1="5" x2="26.8653" y2="33" gradientUnits="userSpaceOnUse">
<stop stop-color="#A7F3D0"/>
<stop offset="0.13" stop-color="#34D399"/>
<stop offset="0.395" stop-color="#16A34A"/>
<stop offset="0.755" stop-color="#14532D"/>
</linearGradient>
<linearGradient id="paint3_linear_5410_280" x1="11.1348" y1="5" x2="11.1348" y2="33" gradientUnits="userSpaceOnUse">
<stop stop-color="#A7F3D0"/>
<stop offset="0.13" stop-color="#34D399"/>
<stop offset="0.395" stop-color="#16A34A"/>
<stop offset="0.755" stop-color="#14532D"/>
</linearGradient>
</defs>
</svg>
