<svg width="36" height="36" viewBox="0 0 36 36" fill="none" xmlns="http://www.w3.org/2000/svg">
<mask id="path-1-inside-1_5548_674" fill="white">
<path d="M0 29.9221C0 13.3966 13.3966 0 29.9221 0C33.2788 0 36 2.72118 36 6.07792C36 22.6034 22.6034 36 6.07792 36H0.553844C0.247963 36 0 35.752 0 35.4462V29.9221Z"/>
</mask>
<path d="M0 29.9221C0 13.3966 13.3966 0 29.9221 0C33.2788 0 36 2.72118 36 6.07792C36 22.6034 22.6034 36 6.07792 36H0.553844C0.247963 36 0 35.752 0 35.4462V29.9221Z" fill="#16A34A"/>
<path d="M0 0H36H0ZM37 9.57792C37 26.6557 23.1557 40.5 6.07792 40.5H5.05385C2.26268 40.5 0 38.2373 0 35.4462V31.5C0 31.5 0.247965 31.5 0.553846 31.5H6.07792C22.0511 31.5 35 20.1181 35 6.07792L37 9.57792ZM0 36V0V36ZM29.9221 0C33.8311 0 37 3.16889 37 7.07792V9.57792C37 26.6557 23.1557 40.5 6.07792 40.5V31.5C22.0511 31.5 35 20.1181 35 6.07792V6.07792C35 2.72118 32.7265 0 29.9221 0Z" fill="url(#paint0_linear_5548_674)" mask="url(#path-1-inside-1_5548_674)"/>
<defs>
<linearGradient id="paint0_linear_5548_674" x1="0" y1="18" x2="39.3446" y2="18" gradientUnits="userSpaceOnUse">
<stop stop-color="#99F6E4"/>
<stop offset="1" stop-color="#34D399"/>
</linearGradient>
</defs>
</svg>
