<svg width="36" height="36" viewBox="0 0 36 36" fill="none" xmlns="http://www.w3.org/2000/svg">
<mask id="path-1-inside-1_5476_49995" fill="white">
<path d="M0 12C0 5.37258 5.37258 0 12 0V0C25.2548 0 36 10.7452 36 24V33.8824C36 35.0519 35.0519 36 33.8824 36H20.8421C9.33133 36 0 26.6687 0 15.1579V12Z"/>
</mask>
<path d="M0 12C0 5.37258 5.37258 0 12 0V0C25.2548 0 36 10.7452 36 24V33.8824C36 35.0519 35.0519 36 33.8824 36H20.8421C9.33133 36 0 26.6687 0 15.1579V12Z" fill="#052E16"/>
<path d="M0 0H36H0ZM36 33.8824C36 37.261 33.261 40 29.8824 40H20.8421C8.22676 40 -2 29.7732 -2 17.1579L2 15.1579C2 24.4595 10.4359 32 20.8421 32H33.8824C35.0519 32 36 32 36 32V33.8824ZM20.8421 40C8.22676 40 -2 29.7732 -2 17.1579V14C-2 6.26801 4.26801 0 12 0C6.47715 0 2 5.37258 2 12V15.1579C2 24.4595 10.4359 32 20.8421 32V40ZM36 0V36V0Z" fill="url(#paint0_linear_5476_49995)" mask="url(#path-1-inside-1_5476_49995)"/>
<defs>
<linearGradient id="paint0_linear_5476_49995" x1="0" y1="18" x2="39.3446" y2="18" gradientUnits="userSpaceOnUse">
<stop stop-color="#99F6E4"/>
<stop offset="1" stop-color="#34D399"/>
</linearGradient>
</defs>
</svg>
